<?xml version="1.0" encoding="utf-8"?>
<svg version="1.1" id="Слой_1" xmlns="http://www.w3.org/2000/svg" xmlns:xlink="http://www.w3.org/1999/xlink" x="0px" y="0px"
	 viewBox="0 0 261.3 52.1" style="enable-background:new 0 0 261.3 52.1;" xml:space="preserve">
<style type="text/css">
	.st0{fill:#FFCCDB;}
	.st1{fill:#FF9AB7;}
	.st2{fill:#FF3670;}
	.st3{fill:#FFFFFF;}
</style>
<title>Logo with vidcrunch</title>
<desc>Created with Sketch.</desc>
<g id="Vid-crunch-logo_x2F_-round-bite">
	<g id="Group-2-Copy-3" transform="translate(2.031250, 2.000000)">

			<g id="Group-2-Copy" transform="translate(30.303280, 29.863605) rotate(-45.000000) translate(-30.303280, -29.863605) translate(8.975155, 8.863605)">

				<rect id="Rectangle" x="9.2" y="-12.6" transform="matrix(-1 5.070363e-06 -5.070363e-06 -1 42.0954 -1.988)" class="st0" width="23.7" height="23.3"/>

				<rect id="Rectangle-Copy" x="9.2" y="10.6" transform="matrix(-1 5.070363e-06 -5.070363e-06 -1 42.0954 44.5906)" class="st1" width="23.7" height="23.3"/>
			<path id="Combined-Shape" class="st2" d="M55,34c-0.1-2.4-1.1-4.8-3-6.7c-4-4-10.4-4-14.4,0L37,27.9c-1.7,1.7-2.7,3.9-2.9,6.1
				h-1.3V10.7h23.7V34H55z"/>
		</g>
	</g>
</g>
</svg>
